# File units = meters
mtllib Baseline Stands.mtl
g Part 1
v 0.124435 0.00254 0.027305 
v 0 0.00254 0.027305 
v 0 0.00254 0.0254 
v 0.124435 0.00254 0.0254 
v 0 0 0.0254 
v 0.124435 0 0.0254 
v 0 0 0 
v 0.124435 0 0 
v 0 0.1524 0 
v 0.124435 0.1524 0 
v 0 0.1524 0.137795 
v 0.124435 0.1524 0.137795 
v 0 0.14986 0.137795 
v 0.124435 0.14986 0.137795 
v 0 0.14986 0.13589 
v 0.124435 0.14986 0.13589 
v 0 0.14732 0.13589 
v 0.124435 0.14732 0.13589 
v 0 0.14732 0.133985 
v 0.124435 0.14732 0.133985 
v 0 0.14478 0.133985 
v 0.124435 0.14478 0.133985 
v 0 0.14478 0.13208 
v 0.124435 0.14478 0.13208 
v 0 0.14224 0.13208 
v 0.124435 0.14224 0.13208 
v 0 0.14224 0.130175 
v 0.124435 0.14224 0.130175 
v 0 0.1397 0.130175 
v 0.124435 0.1397 0.130175 
v 0 0.1397 0.12827 
v 0.124435 0.1397 0.12827 
v 0 0.13716 0.12827 
v 0.124435 0.13716 0.12827 
v 0 0.13716 0.126365 
v 0.124435 0.13716 0.126365 
v 0 0.13462 0.126365 
v 0.124435 0.13462 0.126365 
v 0 0.13462 0.12446 
v 0.124435 0.13462 0.12446 
v 0 0.13208 0.12446 
v 0.124435 0.13208 0.12446 
v 0 0.13208 0.122555 
v 0.124435 0.13208 0.122555 
v 0 0.12954 0.122555 
v 0.124435 0.12954 0.122555 
v 0 0.12954 0.12065 
v 0.124435 0.12954 0.12065 
v 0 0.127 0.12065 
v 0.124435 0.127 0.12065 
v 0 0.127 0.118745 
v 0.124435 0.127 0.118745 
v 0 0.12446 0.118745 
v 0.124435 0.12446 0.118745 
v 0 0.12446 0.11684 
v 0.124435 0.12446 0.11684 
v 0 0.12192 0.11684 
v 0.124435 0.12192 0.11684 
v 0 0.12192 0.114935 
v 0.124435 0.12192 0.114935 
v 0 0.11938 0.114935 
v 0.124435 0.11938 0.114935 
v 0 0.11938 0.11303 
v 0.124435 0.11938 0.11303 
v 0 0.11684 0.11303 
v 0.124435 0.11684 0.11303 
v 0 0.11684 0.111125 
v 0.124435 0.11684 0.111125 
v 0 0.1143 0.111125 
v 0.124435 0.1143 0.111125 
v 0 0.1143 0.10922 
v 0.124435 0.1143 0.10922 
v 0 0.11176 0.10922 
v 0.124435 0.11176 0.10922 
v 0 0.11176 0.107315 
v 0.124435 0.11176 0.107315 
v 0 0.10922 0.107315 
v 0.124435 0.10922 0.107315 
v 0 0.10922 0.10541 
v 0.124435 0.10922 0.10541 
v 0 0.10668 0.10541 
v 0.124435 0.10668 0.10541 
v 0 0.10668 0.103505 
v 0.124435 0.10668 0.103505 
v 0 0.10414 0.103505 
v 0.124435 0.10414 0.103505 
v 0 0.10414 0.1016 
v 0.124435 0.10414 0.1016 
v 0 0.1016 0.1016 
v 0.124435 0.1016 0.1016 
v 0 0.1016 0.099695 
v 0.124435 0.1016 0.099695 
v 0 0.09906 0.099695 
v 0.124435 0.09906 0.099695 
v 0 0.09906 0.09779 
v 0.124435 0.09906 0.09779 
v 0 0.09652 0.09779 
v 0.124435 0.09652 0.09779 
v 0 0.09652 0.095885 
v 0.124435 0.09652 0.095885 
v 0 0.09398 0.095885 
v 0.124435 0.09398 0.095885 
v 0 0.09398 0.09398 
v 0.124435 0.09398 0.09398 
v 0 0.09144 0.09398 
v 0.124435 0.09144 0.09398 
v 0 0.09144 0.092075 
v 0.124435 0.09144 0.092075 
v 0 0.0889 0.092075 
v 0.124435 0.0889 0.092075 
v 0 0.0889 0.09017 
v 0.124435 0.0889 0.09017 
v 0 0.08636 0.09017 
v 0.124435 0.08636 0.09017 
v 0 0.08636 0.088265 
v 0.124435 0.08636 0.088265 
v 0 0.08382 0.088265 
v 0.124435 0.08382 0.088265 
v 0 0.08382 0.08636 
v 0.124435 0.08382 0.08636 
v 0 0.08128 0.08636 
v 0.124435 0.08128 0.08636 
v 0 0.08128 0.084455 
v 0.124435 0.08128 0.084455 
v 0 0.07874 0.084455 
v 0.124435 0.07874 0.084455 
v 0 0.07874 0.08255 
v 0.124435 0.07874 0.08255 
v 0 0.0762 0.08255 
v 0.124435 0.0762 0.08255 
v 0 0.0762 0.080645 
v 0.124435 0.0762 0.080645 
v 0 0.07366 0.080645 
v 0.124435 0.07366 0.080645 
v 0 0.07366 0.07874 
v 0.124435 0.07366 0.07874 
v 0 0.07112 0.07874 
v 0.124435 0.07112 0.07874 
v 0 0.07112 0.076835 
v 0.124435 0.07112 0.076835 
v 0 0.06858 0.076835 
v 0.124435 0.06858 0.076835 
v 0 0.06858 0.07493 
v 0.124435 0.06858 0.07493 
v 0 0.06604 0.07493 
v 0.124435 0.06604 0.07493 
v 0 0.06604 0.073025 
v 0.124435 0.06604 0.073025 
v 0 0.0635 0.073025 
v 0.124435 0.0635 0.073025 
v 0 0.0635 0.07112 
v 0.124435 0.0635 0.07112 
v 0 0.06096 0.07112 
v 0.124435 0.06096 0.07112 
v 0 0.06096 0.069215 
v 0.124435 0.06096 0.069215 
v 0 0.05842 0.069215 
v 0.124435 0.05842 0.069215 
v 0 0.05842 0.06731 
v 0.124435 0.05842 0.06731 
v 0 0.05588 0.06731 
v 0.124435 0.05588 0.06731 
v 0 0.05588 0.065405 
v 0.124435 0.05588 0.065405 
v 0 0.05334 0.065405 
v 0.124435 0.05334 0.065405 
v 0 0.05334 0.0635 
v 0.124435 0.05334 0.0635 
v 0 0.0508 0.0635 
v 0.124435 0.0508 0.0635 
v 0 0.0508 0.061595 
v 0.124435 0.0508 0.061595 
v 0 0.04826 0.061595 
v 0.124435 0.04826 0.061595 
v 0 0.04826 0.05969 
v 0.124435 0.04826 0.05969 
v 0 0.04572 0.05969 
v 0.124435 0.04572 0.05969 
v 0 0.04572 0.057785 
v 0.124435 0.04572 0.057785 
v 0 0.04318 0.057785 
v 0.124435 0.04318 0.057785 
v 0 0.04318 0.05588 
v 0.124435 0.04318 0.05588 
v 0 0.04064 0.05588 
v 0.124435 0.04064 0.05588 
v 0 0.04064 0.053975 
v 0.124435 0.04064 0.053975 
v 0 0.0381 0.053975 
v 0.124435 0.0381 0.053975 
v 0 0.0381 0.05207 
v 0.124435 0.0381 0.05207 
v 0 0.03556 0.05207 
v 0.124435 0.03556 0.05207 
v 0 0.03556 0.050165 
v 0.124435 0.03556 0.050165 
v 0 0.03302 0.050165 
v 0.124435 0.03302 0.050165 
v 0 0.03302 0.04826 
v 0.124435 0.03302 0.04826 
v 0 0.03048 0.04826 
v 0.124435 0.03048 0.04826 
v 0 0.03048 0.046355 
v 0.124435 0.03048 0.046355 
v 0 0.02794 0.046355 
v 0.124435 0.02794 0.046355 
v 0 0.02794 0.04445 
v 0.124435 0.02794 0.04445 
v 0 0.0254 0.04445 
v 0.124435 0.0254 0.04445 
v 0 0.0254 0.042545 
v 0.124435 0.0254 0.042545 
v 0 0.02286 0.042545 
v 0.124435 0.02286 0.042545 
v 0 0.02286 0.04064 
v 0.124435 0.02286 0.04064 
v 0 0.02032 0.04064 
v 0.124435 0.02032 0.04064 
v 0 0.02032 0.038735 
v 0.124435 0.02032 0.038735 
v 0 0.01778 0.038735 
v 0.124435 0.01778 0.038735 
v 0 0.01778 0.03683 
v 0.124435 0.01778 0.03683 
v 0 0.01524 0.03683 
v 0.124435 0.01524 0.03683 
v 0 0.01524 0.034925 
v 0.124435 0.01524 0.034925 
v 0 0.0127 0.034925 
v 0.124435 0.0127 0.034925 
v 0 0.0127 0.03302 
v 0.124435 0.0127 0.03302 
v 0 0.01016 0.03302 
v 0.124435 0.01016 0.03302 
v 0 0.01016 0.031115 
v 0.124435 0.01016 0.031115 
v 0 0.00762 0.031115 
v 0.124435 0.00762 0.031115 
v 0 0.00762 0.02921 
v 0.124435 0.00762 0.02921 
v 0.124435 0.00508 0.027305 
v 0.124435 0.00508 0.02921 
v 0 0.00508 0.027305 
v 0 0.00508 0.02921 
vn 0 -1 0 
vn 0 0 1 
vn 0 0 -1 
vn 0 1 2.46947e-16 
vn 0 0 1 
vn 0 -1 0 
vn 1 0 0 
vn -1 0 0 
vn 0 0 1 
vn 0 -1 0 
usemtl 0.615686_0.811765_0.929412_0.000000_0.000000
o mesh0
f 1//1 2//1 3//1 
f 3//1 4//1 1//1 
o mesh1
f 4//2 3//2 5//2 
f 5//2 6//2 4//2 
o mesh2
f 6//1 5//1 7//1 
f 7//1 8//1 6//1 
o mesh3
f 8//3 7//3 9//3 
f 9//3 10//3 8//3 
o mesh4
f 10//4 9//4 11//4 
f 11//4 12//4 10//4 
o mesh5
f 12//5 11//5 13//5 
f 13//5 14//5 12//5 
o mesh6
f 14//6 13//6 15//6 
f 15//6 16//6 14//6 
o mesh7
f 16//5 15//5 17//5 
f 17//5 18//5 16//5 
o mesh8
f 18//6 17//6 19//6 
f 19//6 20//6 18//6 
o mesh9
f 20//5 19//5 21//5 
f 21//5 22//5 20//5 
o mesh10
f 22//6 21//6 23//6 
f 23//6 24//6 22//6 
o mesh11
f 24//5 23//5 25//5 
f 25//5 26//5 24//5 
o mesh12
f 26//6 25//6 27//6 
f 27//6 28//6 26//6 
o mesh13
f 28//5 27//5 29//5 
f 29//5 30//5 28//5 
o mesh14
f 30//6 29//6 31//6 
f 31//6 32//6 30//6 
o mesh15
f 32//5 31//5 33//5 
f 33//5 34//5 32//5 
o mesh16
f 34//6 33//6 35//6 
f 35//6 36//6 34//6 
o mesh17
f 36//5 35//5 37//5 
f 37//5 38//5 36//5 
o mesh18
f 38//6 37//6 39//6 
f 39//6 40//6 38//6 
o mesh19
f 40//5 39//5 41//5 
f 41//5 42//5 40//5 
o mesh20
f 42//6 41//6 43//6 
f 43//6 44//6 42//6 
o mesh21
f 44//5 43//5 45//5 
f 45//5 46//5 44//5 
o mesh22
f 46//6 45//6 47//6 
f 47//6 48//6 46//6 
o mesh23
f 48//5 47//5 49//5 
f 49//5 50//5 48//5 
o mesh24
f 50//6 49//6 51//6 
f 51//6 52//6 50//6 
o mesh25
f 52//5 51//5 53//5 
f 53//5 54//5 52//5 
o mesh26
f 54//6 53//6 55//6 
f 55//6 56//6 54//6 
o mesh27
f 56//5 55//5 57//5 
f 57//5 58//5 56//5 
o mesh28
f 58//6 57//6 59//6 
f 59//6 60//6 58//6 
o mesh29
f 60//5 59//5 61//5 
f 61//5 62//5 60//5 
o mesh30
f 62//6 61//6 63//6 
f 63//6 64//6 62//6 
o mesh31
f 64//5 63//5 65//5 
f 65//5 66//5 64//5 
o mesh32
f 66//6 65//6 67//6 
f 67//6 68//6 66//6 
o mesh33
f 68//5 67//5 69//5 
f 69//5 70//5 68//5 
o mesh34
f 70//6 69//6 71//6 
f 71//6 72//6 70//6 
o mesh35
f 72//5 71//5 73//5 
f 73//5 74//5 72//5 
o mesh36
f 74//6 73//6 75//6 
f 75//6 76//6 74//6 
o mesh37
f 76//5 75//5 77//5 
f 77//5 78//5 76//5 
o mesh38
f 78//6 77//6 79//6 
f 79//6 80//6 78//6 
o mesh39
f 80//5 79//5 81//5 
f 81//5 82//5 80//5 
o mesh40
f 82//6 81//6 83//6 
f 83//6 84//6 82//6 
o mesh41
f 84//5 83//5 85//5 
f 85//5 86//5 84//5 
o mesh42
f 86//6 85//6 87//6 
f 87//6 88//6 86//6 
o mesh43
f 88//5 87//5 89//5 
f 89//5 90//5 88//5 
o mesh44
f 90//6 89//6 91//6 
f 91//6 92//6 90//6 
o mesh45
f 92//5 91//5 93//5 
f 93//5 94//5 92//5 
o mesh46
f 94//6 93//6 95//6 
f 95//6 96//6 94//6 
o mesh47
f 96//5 95//5 97//5 
f 97//5 98//5 96//5 
o mesh48
f 98//6 97//6 99//6 
f 99//6 100//6 98//6 
o mesh49
f 100//5 99//5 101//5 
f 101//5 102//5 100//5 
o mesh50
f 102//6 101//6 103//6 
f 103//6 104//6 102//6 
o mesh51
f 104//5 103//5 105//5 
f 105//5 106//5 104//5 
o mesh52
f 106//6 105//6 107//6 
f 107//6 108//6 106//6 
o mesh53
f 108//5 107//5 109//5 
f 109//5 110//5 108//5 
o mesh54
f 110//6 109//6 111//6 
f 111//6 112//6 110//6 
o mesh55
f 112//5 111//5 113//5 
f 113//5 114//5 112//5 
o mesh56
f 114//6 113//6 115//6 
f 115//6 116//6 114//6 
o mesh57
f 116//5 115//5 117//5 
f 117//5 118//5 116//5 
o mesh58
f 118//6 117//6 119//6 
f 119//6 120//6 118//6 
o mesh59
f 120//5 119//5 121//5 
f 121//5 122//5 120//5 
o mesh60
f 122//6 121//6 123//6 
f 123//6 124//6 122//6 
o mesh61
f 124//5 123//5 125//5 
f 125//5 126//5 124//5 
o mesh62
f 126//6 125//6 127//6 
f 127//6 128//6 126//6 
o mesh63
f 128//5 127//5 129//5 
f 129//5 130//5 128//5 
o mesh64
f 130//6 129//6 131//6 
f 131//6 132//6 130//6 
o mesh65
f 132//5 131//5 133//5 
f 133//5 134//5 132//5 
o mesh66
f 134//6 133//6 135//6 
f 135//6 136//6 134//6 
o mesh67
f 136//5 135//5 137//5 
f 137//5 138//5 136//5 
o mesh68
f 138//6 137//6 139//6 
f 139//6 140//6 138//6 
o mesh69
f 140//5 139//5 141//5 
f 141//5 142//5 140//5 
o mesh70
f 142//6 141//6 143//6 
f 143//6 144//6 142//6 
o mesh71
f 144//5 143//5 145//5 
f 145//5 146//5 144//5 
o mesh72
f 146//6 145//6 147//6 
f 147//6 148//6 146//6 
o mesh73
f 148//5 147//5 149//5 
f 149//5 150//5 148//5 
o mesh74
f 150//6 149//6 151//6 
f 151//6 152//6 150//6 
o mesh75
f 152//5 151//5 153//5 
f 153//5 154//5 152//5 
o mesh76
f 154//6 153//6 155//6 
f 155//6 156//6 154//6 
o mesh77
f 156//5 155//5 157//5 
f 157//5 158//5 156//5 
o mesh78
f 158//6 157//6 159//6 
f 159//6 160//6 158//6 
o mesh79
f 160//5 159//5 161//5 
f 161//5 162//5 160//5 
o mesh80
f 162//6 161//6 163//6 
f 163//6 164//6 162//6 
o mesh81
f 164//5 163//5 165//5 
f 165//5 166//5 164//5 
o mesh82
f 166//6 165//6 167//6 
f 167//6 168//6 166//6 
o mesh83
f 168//5 167//5 169//5 
f 169//5 170//5 168//5 
o mesh84
f 170//6 169//6 171//6 
f 171//6 172//6 170//6 
o mesh85
f 172//5 171//5 173//5 
f 173//5 174//5 172//5 
o mesh86
f 174//6 173//6 175//6 
f 175//6 176//6 174//6 
o mesh87
f 176//5 175//5 177//5 
f 177//5 178//5 176//5 
o mesh88
f 178//6 177//6 179//6 
f 179//6 180//6 178//6 
o mesh89
f 180//5 179//5 181//5 
f 181//5 182//5 180//5 
o mesh90
f 182//6 181//6 183//6 
f 183//6 184//6 182//6 
o mesh91
f 184//5 183//5 185//5 
f 185//5 186//5 184//5 
o mesh92
f 186//6 185//6 187//6 
f 187//6 188//6 186//6 
o mesh93
f 188//5 187//5 189//5 
f 189//5 190//5 188//5 
o mesh94
f 190//6 189//6 191//6 
f 191//6 192//6 190//6 
o mesh95
f 192//5 191//5 193//5 
f 193//5 194//5 192//5 
o mesh96
f 194//6 193//6 195//6 
f 195//6 196//6 194//6 
o mesh97
f 196//5 195//5 197//5 
f 197//5 198//5 196//5 
o mesh98
f 198//6 197//6 199//6 
f 199//6 200//6 198//6 
o mesh99
f 200//5 199//5 201//5 
f 201//5 202//5 200//5 
o mesh100
f 202//6 201//6 203//6 
f 203//6 204//6 202//6 
o mesh101
f 204//5 203//5 205//5 
f 205//5 206//5 204//5 
o mesh102
f 206//6 205//6 207//6 
f 207//6 208//6 206//6 
o mesh103
f 208//5 207//5 209//5 
f 209//5 210//5 208//5 
o mesh104
f 210//6 209//6 211//6 
f 211//6 212//6 210//6 
o mesh105
f 212//5 211//5 213//5 
f 213//5 214//5 212//5 
o mesh106
f 214//6 213//6 215//6 
f 215//6 216//6 214//6 
o mesh107
f 216//5 215//5 217//5 
f 217//5 218//5 216//5 
o mesh108
f 218//6 217//6 219//6 
f 219//6 220//6 218//6 
o mesh109
f 220//5 219//5 221//5 
f 221//5 222//5 220//5 
o mesh110
f 222//6 221//6 223//6 
f 223//6 224//6 222//6 
o mesh111
f 224//5 223//5 225//5 
f 225//5 226//5 224//5 
o mesh112
f 226//6 225//6 227//6 
f 227//6 228//6 226//6 
o mesh113
f 228//5 227//5 229//5 
f 229//5 230//5 228//5 
o mesh114
f 230//6 229//6 231//6 
f 231//6 232//6 230//6 
o mesh115
f 232//5 231//5 233//5 
f 233//5 234//5 232//5 
o mesh116
f 234//6 233//6 235//6 
f 235//6 236//6 234//6 
o mesh117
f 236//5 235//5 237//5 
f 237//5 238//5 236//5 
o mesh118
f 238//6 237//6 239//6 
f 239//6 240//6 238//6 
o mesh119
f 4//7 10//7 241//7 
f 241//7 10//7 240//7 
f 240//7 242//7 241//7 
f 240//7 10//7 236//7 
f 236//7 238//7 240//7 
f 236//7 10//7 232//7 
f 232//7 234//7 236//7 
f 232//7 10//7 228//7 
f 228//7 230//7 232//7 
f 228//7 10//7 224//7 
f 224//7 226//7 228//7 
f 224//7 10//7 220//7 
f 220//7 222//7 224//7 
f 220//7 10//7 216//7 
f 216//7 218//7 220//7 
f 216//7 10//7 212//7 
f 212//7 214//7 216//7 
f 212//7 10//7 208//7 
f 208//7 210//7 212//7 
f 208//7 10//7 204//7 
f 204//7 206//7 208//7 
f 204//7 10//7 200//7 
f 200//7 202//7 204//7 
f 200//7 10//7 196//7 
f 196//7 198//7 200//7 
f 196//7 10//7 192//7 
f 192//7 194//7 196//7 
f 192//7 10//7 188//7 
f 188//7 190//7 192//7 
f 188//7 10//7 184//7 
f 184//7 186//7 188//7 
f 184//7 10//7 180//7 
f 180//7 182//7 184//7 
f 180//7 10//7 176//7 
f 176//7 178//7 180//7 
f 176//7 10//7 172//7 
f 172//7 174//7 176//7 
f 172//7 10//7 168//7 
f 168//7 170//7 172//7 
f 168//7 10//7 164//7 
f 164//7 166//7 168//7 
f 164//7 10//7 160//7 
f 160//7 162//7 164//7 
f 160//7 10//7 156//7 
f 156//7 158//7 160//7 
f 156//7 10//7 152//7 
f 152//7 154//7 156//7 
f 152//7 10//7 148//7 
f 148//7 150//7 152//7 
f 148//7 10//7 144//7 
f 144//7 146//7 148//7 
f 144//7 10//7 140//7 
f 140//7 142//7 144//7 
f 140//7 10//7 136//7 
f 136//7 138//7 140//7 
f 132//7 134//7 136//7 
f 136//7 10//7 132//7 
f 128//7 130//7 132//7 
f 132//7 10//7 128//7 
f 124//7 126//7 128//7 
f 128//7 10//7 124//7 
f 120//7 122//7 124//7 
f 124//7 10//7 120//7 
f 116//7 118//7 120//7 
f 120//7 10//7 116//7 
f 112//7 114//7 116//7 
f 116//7 10//7 112//7 
f 108//7 110//7 112//7 
f 112//7 10//7 108//7 
f 104//7 106//7 108//7 
f 108//7 10//7 104//7 
f 100//7 102//7 104//7 
f 104//7 10//7 100//7 
f 96//7 98//7 100//7 
f 100//7 10//7 96//7 
f 92//7 94//7 96//7 
f 96//7 10//7 92//7 
f 88//7 90//7 92//7 
f 92//7 10//7 88//7 
f 84//7 86//7 88//7 
f 88//7 10//7 84//7 
f 80//7 82//7 84//7 
f 84//7 10//7 80//7 
f 76//7 78//7 80//7 
f 80//7 10//7 76//7 
f 72//7 74//7 76//7 
f 76//7 10//7 72//7 
f 68//7 70//7 72//7 
f 72//7 10//7 68//7 
f 64//7 66//7 68//7 
f 68//7 10//7 64//7 
f 60//7 62//7 64//7 
f 64//7 10//7 60//7 
f 56//7 58//7 60//7 
f 60//7 10//7 56//7 
f 52//7 54//7 56//7 
f 56//7 10//7 52//7 
f 48//7 50//7 52//7 
f 52//7 10//7 48//7 
f 44//7 46//7 48//7 
f 48//7 10//7 44//7 
f 40//7 42//7 44//7 
f 44//7 10//7 40//7 
f 36//7 38//7 40//7 
f 40//7 10//7 36//7 
f 32//7 34//7 36//7 
f 36//7 10//7 32//7 
f 28//7 30//7 32//7 
f 32//7 10//7 28//7 
f 24//7 26//7 28//7 
f 28//7 10//7 24//7 
f 20//7 22//7 24//7 
f 24//7 10//7 20//7 
f 16//7 18//7 20//7 
f 20//7 10//7 16//7 
f 12//7 14//7 16//7 
f 8//7 10//7 4//7 
f 16//7 10//7 12//7 
f 241//7 1//7 4//7 
f 4//7 6//7 8//7 
o mesh120
f 11//8 9//8 15//8 
f 15//8 9//8 19//8 
f 19//8 17//8 15//8 
f 19//8 9//8 23//8 
f 23//8 21//8 19//8 
f 23//8 9//8 27//8 
f 27//8 25//8 23//8 
f 27//8 9//8 31//8 
f 31//8 29//8 27//8 
f 31//8 9//8 35//8 
f 35//8 33//8 31//8 
f 35//8 9//8 39//8 
f 39//8 37//8 35//8 
f 39//8 9//8 43//8 
f 43//8 41//8 39//8 
f 43//8 9//8 47//8 
f 47//8 45//8 43//8 
f 47//8 9//8 51//8 
f 51//8 49//8 47//8 
f 51//8 9//8 55//8 
f 55//8 53//8 51//8 
f 55//8 9//8 59//8 
f 59//8 57//8 55//8 
f 59//8 9//8 63//8 
f 63//8 61//8 59//8 
f 63//8 9//8 67//8 
f 67//8 65//8 63//8 
f 67//8 9//8 71//8 
f 71//8 69//8 67//8 
f 71//8 9//8 75//8 
f 75//8 73//8 71//8 
f 75//8 9//8 79//8 
f 79//8 77//8 75//8 
f 79//8 9//8 83//8 
f 83//8 81//8 79//8 
f 83//8 9//8 87//8 
f 87//8 85//8 83//8 
f 87//8 9//8 91//8 
f 91//8 89//8 87//8 
f 91//8 9//8 95//8 
f 95//8 93//8 91//8 
f 95//8 9//8 99//8 
f 99//8 97//8 95//8 
f 99//8 9//8 103//8 
f 103//8 101//8 99//8 
f 103//8 9//8 107//8 
f 107//8 105//8 103//8 
f 107//8 9//8 111//8 
f 111//8 109//8 107//8 
f 111//8 9//8 115//8 
f 115//8 113//8 111//8 
f 115//8 9//8 119//8 
f 119//8 117//8 115//8 
f 119//8 9//8 123//8 
f 123//8 121//8 119//8 
f 123//8 9//8 127//8 
f 127//8 125//8 123//8 
f 127//8 9//8 131//8 
f 131//8 129//8 127//8 
f 131//8 9//8 135//8 
f 135//8 133//8 131//8 
f 139//8 137//8 135//8 
f 135//8 9//8 139//8 
f 143//8 141//8 139//8 
f 139//8 9//8 143//8 
f 147//8 145//8 143//8 
f 143//8 9//8 147//8 
f 151//8 149//8 147//8 
f 147//8 9//8 151//8 
f 155//8 153//8 151//8 
f 151//8 9//8 155//8 
f 159//8 157//8 155//8 
f 155//8 9//8 159//8 
f 163//8 161//8 159//8 
f 159//8 9//8 163//8 
f 167//8 165//8 163//8 
f 163//8 9//8 167//8 
f 171//8 169//8 167//8 
f 167//8 9//8 171//8 
f 175//8 173//8 171//8 
f 171//8 9//8 175//8 
f 179//8 177//8 175//8 
f 175//8 9//8 179//8 
f 183//8 181//8 179//8 
f 179//8 9//8 183//8 
f 187//8 185//8 183//8 
f 183//8 9//8 187//8 
f 191//8 189//8 187//8 
f 187//8 9//8 191//8 
f 195//8 193//8 191//8 
f 191//8 9//8 195//8 
f 199//8 197//8 195//8 
f 195//8 9//8 199//8 
f 203//8 201//8 199//8 
f 199//8 9//8 203//8 
f 207//8 205//8 203//8 
f 203//8 9//8 207//8 
f 211//8 209//8 207//8 
f 207//8 9//8 211//8 
f 215//8 213//8 211//8 
f 211//8 9//8 215//8 
f 219//8 217//8 215//8 
f 215//8 9//8 219//8 
f 223//8 221//8 219//8 
f 219//8 9//8 223//8 
f 227//8 225//8 223//8 
f 223//8 9//8 227//8 
f 231//8 229//8 227//8 
f 227//8 9//8 231//8 
f 235//8 233//8 231//8 
f 231//8 9//8 235//8 
f 239//8 237//8 235//8 
f 235//8 9//8 239//8 
f 243//8 244//8 239//8 
f 3//8 2//8 243//8 
f 7//8 5//8 3//8 
f 239//8 9//8 243//8 
f 3//8 9//8 7//8 
f 243//8 9//8 3//8 
f 15//8 13//8 11//8 
o mesh121
f 240//9 239//9 244//9 
f 244//9 242//9 240//9 
o mesh122
f 242//10 244//10 243//10 
f 243//10 241//10 242//10 
o mesh123
f 241//9 243//9 2//9 
f 2//9 1//9 241//9 
