# File units = meters
mtllib Home Plate.mtl
g Part 1
v -0.2159 0.2159 0.0254 
v -0.2159 0.2159 0 
v -3.46945e-17 -2.77556e-17 0 
v -3.46945e-17 -2.77556e-17 0.0254 
v 0.2159 0.2159 0 
v 0.2159 0.2159 0.0254 
v 0.2159 0.4318 0.0254 
v -0.2159 0.4318 0.0254 
v 0.2159 0.4318 0 
v -0.2159 0.4318 0 
vn -0.707107 -0.707107 0 
vn 0.707107 -0.707107 0 
vn 0 0 1 
vn 0 0 -1 
vn 1 2.57115e-16 0 
vn 0 1 0 
vn -1 -2.57115e-16 0 
usemtl 0.615686_0.811765_0.929412_0.000000_0.000000
o mesh0
f 1//1 2//1 3//1 
f 3//1 4//1 1//1 
o mesh1
f 4//2 3//2 5//2 
f 5//2 6//2 4//2 
o mesh2
f 1//3 4//3 6//3 
f 7//3 8//3 1//3 
f 6//3 7//3 1//3 
o mesh3
f 2//4 9//4 5//4 
f 5//4 3//4 2//4 
f 2//4 10//4 9//4 
o mesh4
f 6//5 5//5 9//5 
f 9//5 7//5 6//5 
o mesh5
f 7//6 9//6 10//6 
f 10//6 8//6 7//6 
o mesh6
f 8//7 10//7 2//7 
f 2//7 1//7 8//7 
