# File units = meters
mtllib Wall Top.mtl
g Part 1
v 0.0395622 0.0488553 0 
v 0.0444523 0.0444523 0 
v 0.0444523 0.0444523 2.54e-06 
v 0.0342387 0.052723 0 
v 0.0395622 0.0488553 2.54e-06 
v 0.0285401 0.0560131 0 
v 0.0342387 0.052723 2.54e-06 
v 0.0225288 0.0586895 0 
v 0.0285401 0.0560131 2.54e-06 
v 0.0162707 0.0607229 0 
v 0.0225288 0.0586895 2.54e-06 
v 0.00983425 0.062091 0 
v 0.0162707 0.0607229 2.54e-06 
v 0.0032901 0.0627788 0 
v 0.00983425 0.062091 2.54e-06 
v -0.0032901 0.0627788 0 
v 0.0032901 0.0627788 2.54e-06 
v -0.00983425 0.062091 0 
v -0.0032901 0.0627788 2.54e-06 
v -0.0162707 0.0607229 0 
v -0.00983425 0.062091 2.54e-06 
v -0.0225288 0.0586895 0 
v -0.0162707 0.0607229 2.54e-06 
v -0.0285401 0.0560131 0 
v -0.0225288 0.0586895 2.54e-06 
v -0.0342387 0.052723 0 
v -0.0285401 0.0560131 2.54e-06 
v -0.0395622 0.0488553 0 
v -0.0342387 0.052723 2.54e-06 
v -0.0444523 0.0444523 0 
v -0.0395622 0.0488553 2.54e-06 
v -0.0444523 0.0444523 2.54e-06 
v 0.0453503 0.0453503 0 
v 0.0453503 0.0453503 2.54e-06 
v -0.0453503 0.0453503 0 
v -0.0453503 0.0453503 2.54e-06 
v -0.0403615 0.0498423 2.54e-06 
v -0.0403615 0.0498423 0 
v -0.0349304 0.0537881 2.54e-06 
v -0.0349304 0.0537881 0 
v -0.0291167 0.0571447 2.54e-06 
v -0.0291167 0.0571447 0 
v -0.0229839 0.0598752 2.54e-06 
v -0.0229839 0.0598752 0 
v -0.0165994 0.0619497 2.54e-06 
v -0.0165994 0.0619497 0 
v -0.0100329 0.0633454 2.54e-06 
v -0.0100329 0.0633454 0 
v -0.00335657 0.0640471 2.54e-06 
v -0.00335657 0.0640471 0 
v 0.00335657 0.0640471 2.54e-06 
v 0.00335657 0.0640471 0 
v 0.0100329 0.0633454 2.54e-06 
v 0.0100329 0.0633454 0 
v 0.0165994 0.0619497 2.54e-06 
v 0.0165994 0.0619497 0 
v 0.0229839 0.0598752 2.54e-06 
v 0.0229839 0.0598752 0 
v 0.0291167 0.0571447 2.54e-06 
v 0.0291167 0.0571447 0 
v 0.0349304 0.0537881 2.54e-06 
v 0.0349304 0.0537881 0 
v 0.0403615 0.0498423 2.54e-06 
v 0.0403615 0.0498423 0 
vn -0.62932 -0.777146 0 
vn -0.707107 -0.707107 0 
vn -0.544639 -0.838671 0 
vn -0.62932 -0.777146 0 
vn -0.45399 -0.891007 0 
vn -0.544639 -0.838671 0 
vn -0.358368 -0.93358 0 
vn -0.45399 -0.891007 0 
vn -0.258819 -0.965926 0 
vn -0.358368 -0.93358 0 
vn -0.156434 -0.987688 0 
vn -0.258819 -0.965926 0 
vn -0.052336 -0.99863 0 
vn -0.156434 -0.987688 0 
vn 0.052336 -0.99863 0 
vn -0.052336 -0.99863 0 
vn 0.156434 -0.987688 0 
vn 0.052336 -0.99863 0 
vn 0.258819 -0.965926 0 
vn 0.156434 -0.987688 0 
vn 0.358368 -0.93358 0 
vn 0.258819 -0.965926 0 
vn 0.45399 -0.891007 0 
vn 0.358368 -0.93358 0 
vn 0.544639 -0.838671 0 
vn 0.45399 -0.891007 0 
vn 0.62932 -0.777146 0 
vn 0.544639 -0.838671 0 
vn 0.707107 -0.707107 0 
vn 0.62932 -0.777146 0 
vn -0.707107 0.707107 0 
vn -0.62932 0.777146 0 
vn -0.544639 0.838671 0 
vn -0.45399 0.891007 0 
vn -0.358368 0.93358 0 
vn -0.258819 0.965926 0 
vn -0.156434 0.987688 0 
vn -0.052336 0.99863 0 
vn 0.052336 0.99863 0 
vn 0.156434 0.987688 0 
vn 0.258819 0.965926 0 
vn 0.358368 0.93358 0 
vn 0.45399 0.891007 0 
vn 0.544639 0.838671 0 
vn 0.62932 0.777146 0 
vn 0.707107 0.707107 0 
vn -0.707107 -0.707107 0 
vn 0 0 1 
vn 0 0 -1 
usemtl 0.615686_0.811765_0.929412_0.000000_0.000000
o mesh0
f 1//1 2//2 3//2 
f 4//3 1//1 5//4 
f 6//5 4//3 7//6 
f 8//7 6//5 9//8 
f 10//9 8//7 11//10 
f 12//11 10//9 13//12 
f 14//13 12//11 15//14 
f 16//15 14//13 17//16 
f 18//17 16//15 19//18 
f 20//19 18//17 21//20 
f 22//21 20//19 23//22 
f 24//23 22//21 25//24 
f 26//25 24//23 27//26 
f 28//27 26//25 29//28 
f 30//29 28//27 31//30 
f 31//30 32//29 30//29 
f 29//28 31//30 28//27 
f 27//26 29//28 26//25 
f 25//24 27//26 24//23 
f 23//22 25//24 22//21 
f 21//20 23//22 20//19 
f 19//18 21//20 18//17 
f 17//16 19//18 16//15 
f 15//14 17//16 14//13 
f 13//12 15//14 12//11 
f 11//10 13//12 10//9 
f 9//8 11//10 8//7 
f 7//6 9//8 6//5 
f 5//4 7//6 4//3 
f 3//2 5//4 1//1 
o mesh1
f 2//29 33//29 34//29 
f 34//29 3//29 2//29 
o mesh2
f 35//31 36//31 37//32 
f 38//32 37//32 39//33 
f 40//33 39//33 41//34 
f 42//34 41//34 43//35 
f 44//35 43//35 45//36 
f 46//36 45//36 47//37 
f 48//37 47//37 49//38 
f 50//38 49//38 51//39 
f 52//39 51//39 53//40 
f 54//40 53//40 55//41 
f 56//41 55//41 57//42 
f 58//42 57//42 59//43 
f 60//43 59//43 61//44 
f 62//44 61//44 63//45 
f 64//45 63//45 34//46 
f 34//46 33//46 64//45 
f 63//45 64//45 62//44 
f 61//44 62//44 60//43 
f 59//43 60//43 58//42 
f 57//42 58//42 56//41 
f 55//41 56//41 54//40 
f 53//40 54//40 52//39 
f 51//39 52//39 50//38 
f 49//38 50//38 48//37 
f 47//37 48//37 46//36 
f 45//36 46//36 44//35 
f 43//35 44//35 42//34 
f 41//34 42//34 40//33 
f 39//33 40//33 38//32 
f 37//32 38//32 35//31 
o mesh3
f 36//47 35//47 30//47 
f 30//47 32//47 36//47 
o mesh4
f 59//48 9//48 7//48 
f 57//48 11//48 9//48 
f 9//48 59//48 57//48 
f 55//48 13//48 11//48 
f 53//48 15//48 13//48 
f 51//48 17//48 15//48 
f 11//48 57//48 55//48 
f 15//48 53//48 51//48 
f 47//48 21//48 19//48 
f 45//48 23//48 21//48 
f 43//48 25//48 23//48 
f 41//48 27//48 25//48 
f 63//48 5//48 3//48 
f 61//48 7//48 5//48 
f 13//48 55//48 53//48 
f 49//48 19//48 17//48 
f 21//48 47//48 45//48 
f 25//48 43//48 41//48 
f 39//48 29//48 27//48 
f 39//48 37//48 31//48 
f 5//48 63//48 61//48 
f 17//48 51//48 49//48 
f 23//48 45//48 43//48 
f 31//48 29//48 39//48 
f 7//48 61//48 59//48 
f 27//48 41//48 39//48 
f 19//48 49//48 47//48 
f 36//48 32//48 31//48 
f 31//48 37//48 36//48 
f 3//48 34//48 63//48 
o mesh5
f 52//49 54//49 12//49 
f 54//49 56//49 10//49 
f 58//49 60//49 6//49 
f 60//49 62//49 4//49 
f 42//49 44//49 22//49 
f 44//49 46//49 20//49 
f 46//49 48//49 18//49 
f 48//49 50//49 16//49 
f 50//49 52//49 14//49 
f 10//49 12//49 54//49 
f 56//49 58//49 8//49 
f 4//49 6//49 60//49 
f 40//49 26//49 28//49 
f 40//49 42//49 24//49 
f 20//49 22//49 44//49 
f 16//49 18//49 48//49 
f 12//49 14//49 52//49 
f 6//49 8//49 58//49 
f 62//49 64//49 1//49 
f 64//49 33//49 2//49 
f 24//49 26//49 40//49 
f 18//49 20//49 46//49 
f 8//49 10//49 56//49 
f 2//49 1//49 64//49 
f 22//49 24//49 42//49 
f 1//49 4//49 62//49 
f 38//49 28//49 30//49 
f 14//49 16//49 50//49 
f 28//49 38//49 40//49 
f 30//49 35//49 38//49 
