# File units = meters
mtllib Field.mtl
g Part 1
v 6.93889e-18 6.93889e-18 0.00254 
v -0.055778 0.114096 0.00254 
v -0.0650094 0.1091 0.00254 
v 0.0362377 0.12172 0.00254 
v 0.0260623 0.124297 0.00254 
v -0.0461655 0.118312 0.00254 
v 0.00524827 0.126892 0.00254 
v -0.00524827 0.126892 0.00254 
v 0.0461655 0.118312 0.00254 
v -0.0737968 0.103359 0.00254 
v -0.0260623 0.124297 0.00254 
v -0.0362377 0.12172 0.00254 
v -0.015709 0.126025 0.00254 
v 0.015709 0.126025 0.00254 
v 0.0737968 0.103359 0.00254 
v 0.0650094 0.1091 0.00254 
v 0.055778 0.114096 0.00254 
v 0.0898026 0.0898026 0.00254 
v 0.08208 0.0969117 0.00254 
v -0.08208 0.0969117 0.00254 
v -0.0898026 0.0898026 0.00254 
v -0.0898026 0.0898026 0 
v -0.08208 0.0969117 0 
v -0.0737968 0.103359 0 
v -0.0650094 0.1091 0 
v -0.055778 0.114096 0 
v -0.0461655 0.118312 0 
v -0.0362377 0.12172 0 
v -0.0260623 0.124297 0 
v -0.015709 0.126025 0 
v -0.00524827 0.126892 0 
v 0.00524827 0.126892 0 
v 0.015709 0.126025 0 
v 0.0260623 0.124297 0 
v 0.0362377 0.12172 0 
v 0.0461655 0.118312 0 
v 0.055778 0.114096 0 
v 0.0650094 0.1091 0 
v 0.0737968 0.103359 0 
v 0.08208 0.0969117 0 
v 0.0898026 0.0898026 0 
v 6.93889e-18 6.93889e-18 0 
vn 0 0 1 
vn -0.707107 0.707107 0 
vn -0.646299 0.763084 0 
vn -0.581077 0.813849 0 
vn -0.511885 0.859054 0 
vn -0.439197 0.898391 0 
vn -0.363508 0.931591 0 
vn -0.285336 0.958427 0 
vn -0.205215 0.978717 0 
vn -0.123693 0.992321 0 
vn -0.041325 0.999146 0 
vn 0.041325 0.999146 0 
vn 0.123693 0.992321 0 
vn 0.205215 0.978717 0 
vn 0.285336 0.958427 0 
vn 0.363508 0.931591 0 
vn 0.439197 0.898391 0 
vn 0.511885 0.859054 0 
vn 0.581077 0.813849 0 
vn 0.646299 0.763084 0 
vn 0.707107 0.707107 0 
vn -0.707107 -0.707107 0 
vn 0.707107 -0.707107 0 
vn 0 0 -1 
usemtl 0.615686_0.811765_0.929412_0.000000_0.000000
o mesh0
f 1//1 2//1 3//1 
f 1//1 4//1 5//1 
f 1//1 6//1 2//1 
f 1//1 7//1 8//1 
f 1//1 9//1 4//1 
f 3//1 10//1 1//1 
f 1//1 11//1 12//1 
f 8//1 13//1 1//1 
f 5//1 14//1 1//1 
f 12//1 6//1 1//1 
f 14//1 7//1 1//1 
f 1//1 15//1 16//1 
f 13//1 11//1 1//1 
f 16//1 17//1 1//1 
f 17//1 9//1 1//1 
f 1//1 18//1 19//1 
f 19//1 15//1 1//1 
f 10//1 20//1 1//1 
f 20//1 21//1 1//1 
o mesh1
f 22//2 21//2 20//3 
f 23//3 20//3 10//4 
f 24//4 10//4 3//5 
f 25//5 3//5 2//6 
f 26//6 2//6 6//7 
f 27//7 6//7 12//8 
f 28//8 12//8 11//9 
f 29//9 11//9 13//10 
f 30//10 13//10 8//11 
f 31//11 8//11 7//12 
f 32//12 7//12 14//13 
f 33//13 14//13 5//14 
f 34//14 5//14 4//15 
f 35//15 4//15 9//16 
f 36//16 9//16 17//17 
f 37//17 17//17 16//18 
f 38//18 16//18 15//19 
f 39//19 15//19 19//20 
f 40//20 19//20 18//21 
f 18//21 41//21 40//20 
f 19//20 40//20 39//19 
f 15//19 39//19 38//18 
f 16//18 38//18 37//17 
f 17//17 37//17 36//16 
f 9//16 36//16 35//15 
f 4//15 35//15 34//14 
f 5//14 34//14 33//13 
f 14//13 33//13 32//12 
f 7//12 32//12 31//11 
f 8//11 31//11 30//10 
f 13//10 30//10 29//9 
f 11//9 29//9 28//8 
f 12//8 28//8 27//7 
f 6//7 27//7 26//6 
f 2//6 26//6 25//5 
f 3//5 25//5 24//4 
f 10//4 24//4 23//3 
f 20//3 23//3 22//2 
o mesh2
f 21//22 22//22 42//22 
f 42//22 1//22 21//22 
o mesh3
f 1//23 42//23 41//23 
f 41//23 18//23 1//23 
o mesh4
f 42//24 33//24 34//24 
f 42//24 24//24 25//24 
f 34//24 35//24 42//24 
f 42//24 30//24 31//24 
f 25//24 26//24 42//24 
f 42//24 32//24 33//24 
f 42//24 29//24 30//24 
f 42//24 27//24 28//24 
f 42//24 23//24 24//24 
f 42//24 37//24 38//24 
f 31//24 32//24 42//24 
f 26//24 27//24 42//24 
f 42//24 36//24 37//24 
f 28//24 29//24 42//24 
f 42//24 39//24 40//24 
f 35//24 36//24 42//24 
f 38//24 39//24 42//24 
f 42//24 22//24 23//24 
f 40//24 41//24 42//24 
