# File units = meters
mtllib Walls.mtl
g Part 1
v -0.0924789 0.0888868 0.00635 
v -0.0924789 0.0888868 0 
v -0.00449013 0.000898026 0 
v -0.00449013 0.000898026 0.00635 
v 0.00449013 0.000898026 0 
v 0.00449013 0.000898026 0.00635 
v 0.00399618 0.000453277 0.00635 
v 0.00399618 0.000453277 0 
v 0.00345846 6.25956e-05 0.00635 
v 0.00345846 6.25956e-05 0 
v 0.00288284 -0.000269738 0.00635 
v 0.00288284 -0.000269738 0 
v 0.00227564 -0.000540082 0.00635 
v 0.00227564 -0.000540082 0 
v 0.0016435 -0.000745475 0.00635 
v 0.0016435 -0.000745475 0 
v 0.000993359 -0.000883667 0.00635 
v 0.000993359 -0.000883667 0 
v 0.000332333 -0.000953144 0.00635 
v 0.000332333 -0.000953144 0 
v -0.000332333 -0.000953144 0.00635 
v -0.000332333 -0.000953144 0 
v -0.000993359 -0.000883667 0.00635 
v -0.000993359 -0.000883667 0 
v -0.0016435 -0.000745475 0.00635 
v -0.0016435 -0.000745475 0 
v -0.00227564 -0.000540082 0.00635 
v -0.00227564 -0.000540082 0 
v -0.00288284 -0.000269738 0.00635 
v -0.00288284 -0.000269738 0 
v -0.00345846 6.25956e-05 0.00635 
v -0.00345846 6.25956e-05 0 
v -0.00399618 0.000453277 0.00635 
v -0.00399618 0.000453277 0 
v 0.0924789 0.0888868 0 
v 0.0924789 0.0888868 0.00635 
v -0.084622 0.0963966 0.00635 
v -0.084622 0.0963966 0 
v -0.0761576 0.103214 0.00635 
v -0.0761576 0.103214 0 
v -0.0671465 0.109291 0.00635 
v -0.0671465 0.109291 0 
v -0.0576532 0.114583 0.00635 
v -0.0576532 0.114583 0 
v -0.047746 0.119053 0.00635 
v -0.047746 0.119053 0 
v -0.037496 0.122667 0.00635 
v -0.037496 0.122667 0 
v -0.0269768 0.125401 0.00635 
v -0.0269768 0.125401 0 
v -0.016264 0.127235 0.00635 
v -0.016264 0.127235 0 
v -0.00543433 0.128155 0.00635 
v -0.00543433 0.128155 0 
v 0.00543433 0.128155 0.00635 
v 0.00543433 0.128155 0 
v 0.016264 0.127235 0.00635 
v 0.016264 0.127235 0 
v 0.0269768 0.125401 0.00635 
v 0.0269768 0.125401 0 
v 0.037496 0.122667 0.00635 
v 0.037496 0.122667 0 
v 0.047746 0.119053 0.00635 
v 0.047746 0.119053 0 
v 0.0576532 0.114583 0.00635 
v 0.0576532 0.114583 0 
v 0.0671465 0.109291 0.00635 
v 0.0671465 0.109291 0 
v 0.0761576 0.103214 0.00635 
v 0.0761576 0.103214 0 
v 0.084622 0.0963966 0.00635 
v 0.084622 0.0963966 0 
v 0.062865 0.108885 0.00635 
v 0.0721158 0.102992 0.00635 
v 0.0531358 0.11395 0.00635 
v 0.0430022 0.118148 0.00635 
v 0.0325413 0.121446 0.00635 
v -0.0109581 0.125252 0.00635 
v -0.000332333 0.00263896 0.00635 
v -0.000993359 0.00270844 0.00635 
v 0.000993359 0.00270844 0.00635 
v -2.17386e-17 0.12573 0.00635 
v 0.0109581 0.125252 0.00635 
v -0.0531358 0.11395 0.00635 
v -0.062865 0.108885 0.00635 
v -0.0016435 0.00284663 0.00635 
v -0.00227564 0.00305202 0.00635 
v 0.000332333 0.00263896 0.00635 
v 0.0016435 0.00284663 0.00635 
v 0.0808177 0.0963148 0.00635 
v 0.0218328 0.12382 0.00635 
v -0.0325413 0.121446 0.00635 
v -0.0430022 0.118148 0.00635 
v -0.0721158 0.102992 0.00635 
v -0.00288284 0.00332236 0.00635 
v -0.00345846 0.0036547 0.00635 
v 0.00227564 0.00305202 0.00635 
v 0.00288284 0.00332236 0.00635 
v 0.0889045 0.0889045 0.00635 
v 0.00449013 0.00449013 0.00635 
v -0.0218328 0.12382 0.00635 
v -0.0808177 0.0963148 0.00635 
v -0.0889045 0.0889045 0.00635 
v 0.00399618 0.00404538 0.00635 
v 0.00345846 0.0036547 0.00635 
v -0.00449013 0.00449013 0.00635 
v -0.00399618 0.00404538 0.00635 
v 0.00449013 0.00449013 0 
v 0.00288284 0.00332236 0 
v 0.00345846 0.0036547 0 
v 0.0016435 0.00284663 0 
v 0.00227564 0.00305202 0 
v -0.0531358 0.11395 0 
v -0.062865 0.108885 0 
v -0.0430022 0.118148 0 
v -2.17386e-17 0.12573 0 
v -0.0109581 0.125252 0 
v 0.00399618 0.00404538 0 
v 0.000332333 0.00263896 0 
v 0.000993359 0.00270844 0 
v -0.0016435 0.00284663 0 
v -0.0808177 0.0963148 0 
v -0.0889045 0.0889045 0 
v -0.0721158 0.102992 0 
v 0.0109581 0.125252 0 
v 0.0430022 0.118148 0 
v 0.0531358 0.11395 0 
v 0.062865 0.108885 0 
v 0.0721158 0.102992 0 
v -0.000993359 0.00270844 0 
v -0.00227564 0.00305202 0 
v -0.00288284 0.00332236 0 
v -0.0325413 0.121446 0 
v -0.0218328 0.12382 0 
v 0.0218328 0.12382 0 
v -0.000332333 0.00263896 0 
v -0.00345846 0.0036547 0 
v 0.0325413 0.121446 0 
v 0.0808177 0.0963148 0 
v 0.0889045 0.0889045 0 
v -0.00399618 0.00404538 0 
v -0.00449013 0.00449013 0 
vn -0.707107 -0.707107 0 
vn 0.707107 -0.707107 0 
vn 0.62932 -0.777146 0 
vn 0.544639 -0.838671 0 
vn 0.45399 -0.891007 0 
vn 0.358368 -0.93358 0 
vn 0.258819 -0.965926 0 
vn 0.156434 -0.987688 0 
vn 0.052336 -0.99863 0 
vn -0.052336 -0.99863 0 
vn -0.156434 -0.987688 0 
vn -0.258819 -0.965926 0 
vn -0.358368 -0.93358 0 
vn -0.45399 -0.891007 0 
vn -0.544639 -0.838671 0 
vn -0.62932 -0.777146 0 
vn -0.707107 -0.707107 0 
vn 0.707107 -0.707107 0 
vn -0.72097 0.692966 0 
vn -0.659718 0.751513 0 
vn -0.593729 0.804665 0 
vn -0.523478 0.852039 0 
vn -0.449468 0.893297 0 
vn -0.372231 0.92814 0 
vn -0.292321 0.95632 0 
vn -0.210313 0.977634 0 
vn -0.126795 0.991929 0 
vn -0.0423663 0.999102 0 
vn 0.0423663 0.999102 0 
vn 0.126795 0.991929 0 
vn 0.210313 0.977634 0 
vn 0.292321 0.95632 0 
vn 0.372231 0.92814 0 
vn 0.449468 0.893297 0 
vn 0.523478 0.852039 0 
vn 0.593729 0.804665 0 
vn 0.659718 0.751513 0 
vn 0.72097 0.692966 0 
vn 0 0 1 
vn 0 0 -1 
vn 0.62932 0.777146 0 
vn 0.707107 0.707107 0 
vn 0.544639 0.838671 0 
vn 0.62932 0.777146 0 
vn 0.45399 0.891007 0 
vn 0.544639 0.838671 0 
vn 0.358368 0.93358 0 
vn 0.45399 0.891007 0 
vn 0.258819 0.965926 0 
vn 0.358368 0.93358 0 
vn 0.156434 0.987688 0 
vn 0.258819 0.965926 0 
vn 0.052336 0.99863 0 
vn 0.156434 0.987688 0 
vn -0.052336 0.99863 0 
vn 0.052336 0.99863 0 
vn -0.156434 0.987688 0 
vn -0.052336 0.99863 0 
vn -0.258819 0.965926 0 
vn -0.156434 0.987688 0 
vn -0.358368 0.93358 0 
vn -0.258819 0.965926 0 
vn -0.45399 0.891007 0 
vn -0.358368 0.93358 0 
vn -0.544639 0.838671 0 
vn -0.45399 0.891007 0 
vn -0.62932 0.777146 0 
vn -0.544639 0.838671 0 
vn -0.707107 0.707107 0 
vn -0.62932 0.777146 0 
vn 0.707107 0.707107 0 
vn -0.642788 -0.766044 0 
vn -0.707107 -0.707107 0 
vn -0.573576 -0.819152 0 
vn -0.642788 -0.766044 0 
vn -0.5 -0.866025 0 
vn -0.573576 -0.819152 0 
vn -0.422618 -0.906308 0 
vn -0.5 -0.866025 0 
vn -0.34202 -0.939693 0 
vn -0.422618 -0.906308 0 
vn -0.258819 -0.965926 0 
vn -0.34202 -0.939693 0 
vn -0.173648 -0.984808 0 
vn -0.258819 -0.965926 0 
vn -0.0871557 -0.996195 0 
vn -0.173648 -0.984808 0 
vn 2.83277e-16 -1 0 
vn -0.0871557 -0.996195 0 
vn 0.0871557 -0.996195 0 
vn 2.83277e-16 -1 0 
vn 0.173648 -0.984808 0 
vn 0.0871557 -0.996195 0 
vn 0.258819 -0.965926 0 
vn 0.173648 -0.984808 0 
vn 0.34202 -0.939693 0 
vn 0.258819 -0.965926 0 
vn 0.422618 -0.906308 0 
vn 0.34202 -0.939693 0 
vn 0.5 -0.866025 0 
vn 0.422618 -0.906308 0 
vn 0.573576 -0.819152 0 
vn 0.5 -0.866025 0 
vn 0.642788 -0.766044 0 
vn 0.573576 -0.819152 0 
vn 0.707107 -0.707107 0 
vn 0.642788 -0.766044 0 
vn -0.707107 0.707107 0 
usemtl 0.615686_0.811765_0.929412_0.000000_0.000000
o mesh0
f 1//1 2//1 3//1 
f 3//1 4//1 1//1 
o mesh1
f 5//2 6//2 7//3 
f 8//3 7//3 9//4 
f 10//4 9//4 11//5 
f 12//5 11//5 13//6 
f 14//6 13//6 15//7 
f 16//7 15//7 17//8 
f 18//8 17//8 19//9 
f 20//9 19//9 21//10 
f 22//10 21//10 23//11 
f 24//11 23//11 25//12 
f 26//12 25//12 27//13 
f 28//13 27//13 29//14 
f 30//14 29//14 31//15 
f 32//15 31//15 33//16 
f 34//16 33//16 4//17 
f 4//17 3//17 34//16 
f 33//16 34//16 32//15 
f 31//15 32//15 30//14 
f 29//14 30//14 28//13 
f 27//13 28//13 26//12 
f 25//12 26//12 24//11 
f 23//11 24//11 22//10 
f 21//10 22//10 20//9 
f 19//9 20//9 18//8 
f 17//8 18//8 16//7 
f 15//7 16//7 14//6 
f 13//6 14//6 12//5 
f 11//5 12//5 10//4 
f 9//4 10//4 8//3 
f 7//3 8//3 5//2 
o mesh2
f 6//18 5//18 35//18 
f 35//18 36//18 6//18 
o mesh3
f 2//19 1//19 37//20 
f 38//20 37//20 39//21 
f 40//21 39//21 41//22 
f 42//22 41//22 43//23 
f 44//23 43//23 45//24 
f 46//24 45//24 47//25 
f 48//25 47//25 49//26 
f 50//26 49//26 51//27 
f 52//27 51//27 53//28 
f 54//28 53//28 55//29 
f 56//29 55//29 57//30 
f 58//30 57//30 59//31 
f 60//31 59//31 61//32 
f 62//32 61//32 63//33 
f 64//33 63//33 65//34 
f 66//34 65//34 67//35 
f 68//35 67//35 69//36 
f 70//36 69//36 71//37 
f 72//37 71//37 36//38 
f 36//38 35//38 72//37 
f 71//37 72//37 70//36 
f 69//36 70//36 68//35 
f 67//35 68//35 66//34 
f 65//34 66//34 64//33 
f 63//33 64//33 62//32 
f 61//32 62//32 60//31 
f 59//31 60//31 58//30 
f 57//30 58//30 56//29 
f 55//29 56//29 54//28 
f 53//28 54//28 52//27 
f 51//27 52//27 50//26 
f 49//26 50//26 48//25 
f 47//25 48//25 46//24 
f 45//24 46//24 44//23 
f 43//23 44//23 42//22 
f 41//22 42//22 40//21 
f 39//21 40//21 38//20 
f 37//20 38//20 2//19 
o mesh4
f 67//39 73//39 74//39 
f 65//39 75//39 73//39 
f 63//39 76//39 75//39 
f 61//39 77//39 76//39 
f 53//39 51//39 78//39 
f 23//39 79//39 80//39 
f 17//39 15//39 81//39 
f 73//39 67//39 65//39 
f 76//39 63//39 61//39 
f 55//39 82//39 83//39 
f 82//39 55//39 53//39 
f 45//39 43//39 84//39 
f 43//39 41//39 85//39 
f 86//39 87//39 31//39 
f 80//39 25//39 23//39 
f 21//39 19//39 88//39 
f 88//39 19//39 17//39 
f 81//39 15//39 13//39 
f 89//39 11//39 9//39 
f 69//39 74//39 90//39 
f 75//39 65//39 63//39 
f 57//39 83//39 91//39 
f 78//39 82//39 53//39 
f 49//39 47//39 92//39 
f 47//39 45//39 93//39 
f 85//39 84//39 43//39 
f 41//39 39//39 94//39 
f 95//39 96//39 4//39 
f 87//39 95//39 33//39 
f 31//39 29//39 86//39 
f 80//39 86//39 27//39 
f 88//39 79//39 21//39 
f 13//39 89//39 81//39 
f 89//39 13//39 11//39 
f 97//39 9//39 7//39 
f 98//39 7//39 6//39 
f 36//39 99//39 100//39 
f 74//39 69//39 67//39 
f 59//39 91//39 77//39 
f 83//39 57//39 55//39 
f 51//39 49//39 101//39 
f 93//39 92//39 47//39 
f 94//39 85//39 41//39 
f 39//39 37//39 102//39 
f 37//39 1//39 103//39 
f 33//39 31//39 87//39 
f 27//39 25//39 80//39 
f 81//39 88//39 17//39 
f 7//39 98//39 97//39 
f 6//39 104//39 105//39 
f 100//39 6//39 36//39 
f 77//39 61//39 59//39 
f 101//39 78//39 51//39 
f 84//39 93//39 45//39 
f 103//39 102//39 37//39 
f 29//39 27//39 86//39 
f 9//39 97//39 89//39 
f 100//39 104//39 6//39 
f 91//39 59//39 57//39 
f 102//39 94//39 39//39 
f 1//39 4//39 106//39 
f 4//39 33//39 95//39 
f 6//39 105//39 98//39 
f 71//39 90//39 99//39 
f 92//39 101//39 49//39 
f 4//39 107//39 106//39 
f 23//39 21//39 79//39 
f 90//39 71//39 69//39 
f 96//39 107//39 4//39 
f 106//39 103//39 1//39 
f 99//39 36//39 71//39 
o mesh5
f 35//40 5//40 108//40 
f 109//40 110//40 5//40 
f 111//40 112//40 10//40 
f 44//40 113//40 114//40 
f 46//40 115//40 113//40 
f 54//40 116//40 117//40 
f 5//40 118//40 108//40 
f 5//40 8//40 109//40 
f 112//40 109//40 8//40 
f 10//40 12//40 111//40 
f 18//40 119//40 120//40 
f 121//40 30//40 32//40 
f 38//40 122//40 123//40 
f 40//40 124//40 122//40 
f 42//40 114//40 124//40 
f 113//40 44//40 46//40 
f 117//40 52//40 54//40 
f 56//40 58//40 125//40 
f 62//40 64//40 126//40 
f 64//40 66//40 127//40 
f 66//40 68//40 128//40 
f 68//40 70//40 129//40 
f 110//40 118//40 5//40 
f 12//40 14//40 111//40 
f 120//40 111//40 14//40 
f 120//40 16//40 18//40 
f 24//40 26//40 130//40 
f 130//40 26//40 28//40 
f 121//40 28//40 30//40 
f 131//40 32//40 34//40 
f 132//40 34//40 3//40 
f 122//40 38//40 40//40 
f 114//40 42//40 44//40 
f 48//40 133//40 115//40 
f 50//40 134//40 133//40 
f 125//40 116//40 56//40 
f 58//40 60//40 135//40 
f 127//40 126//40 64//40 
f 129//40 128//40 68//40 
f 8//40 10//40 112//40 
f 18//40 20//40 119//40 
f 22//40 136//40 119//40 
f 136//40 22//40 24//40 
f 32//40 131//40 121//40 
f 3//40 137//40 132//40 
f 124//40 40//40 42//40 
f 133//40 48//40 50//40 
f 52//40 117//40 134//40 
f 135//40 125//40 58//40 
f 60//40 62//40 138//40 
f 128//40 127//40 66//40 
f 70//40 72//40 139//40 
f 72//40 35//40 140//40 
f 14//40 16//40 120//40 
f 130//40 136//40 24//40 
f 34//40 132//40 131//40 
f 115//40 46//40 48//40 
f 54//40 56//40 116//40 
f 126//40 138//40 62//40 
f 140//40 139//40 72//40 
f 119//40 20//40 22//40 
f 3//40 141//40 137//40 
f 2//40 123//40 142//40 
f 134//40 50//40 52//40 
f 139//40 129//40 70//40 
f 28//40 121//40 130//40 
f 142//40 3//40 2//40 
f 138//40 135//40 60//40 
f 142//40 141//40 3//40 
f 108//40 140//40 35//40 
f 123//40 2//40 38//40 
o mesh6
f 141//41 142//42 106//42 
f 137//43 141//41 107//44 
f 132//45 137//43 96//46 
f 131//47 132//45 95//48 
f 121//49 131//47 87//50 
f 130//51 121//49 86//52 
f 136//53 130//51 80//54 
f 119//55 136//53 79//56 
f 120//57 119//55 88//58 
f 111//59 120//57 81//60 
f 112//61 111//59 89//62 
f 109//63 112//61 97//64 
f 110//65 109//63 98//66 
f 118//67 110//65 105//68 
f 108//69 118//67 104//70 
f 104//70 100//69 108//69 
f 105//68 104//70 118//67 
f 98//66 105//68 110//65 
f 97//64 98//66 109//63 
f 89//62 97//64 112//61 
f 81//60 89//62 111//59 
f 88//58 81//60 120//57 
f 79//56 88//58 119//55 
f 80//54 79//56 136//53 
f 86//52 80//54 130//51 
f 87//50 86//52 121//49 
f 95//48 87//50 131//47 
f 96//46 95//48 132//45 
f 107//44 96//46 137//43 
f 106//42 107//44 141//41 
o mesh7
f 106//71 142//71 123//71 
f 123//71 103//71 106//71 
o mesh8
f 139//72 140//73 99//73 
f 129//74 139//72 90//75 
f 128//76 129//74 74//77 
f 127//78 128//76 73//79 
f 126//80 127//78 75//81 
f 138//82 126//80 76//83 
f 135//84 138//82 77//85 
f 125//86 135//84 91//87 
f 116//88 125//86 83//89 
f 117//90 116//88 82//91 
f 134//92 117//90 78//93 
f 133//94 134//92 101//95 
f 115//96 133//94 92//97 
f 113//98 115//96 93//99 
f 114//100 113//98 84//101 
f 124//102 114//100 85//103 
f 122//104 124//102 94//105 
f 123//106 122//104 102//107 
f 102//107 103//106 123//106 
f 94//105 102//107 122//104 
f 85//103 94//105 124//102 
f 84//101 85//103 114//100 
f 93//99 84//101 113//98 
f 92//97 93//99 115//96 
f 101//95 92//97 133//94 
f 78//93 101//95 134//92 
f 82//91 78//93 117//90 
f 83//89 82//91 116//88 
f 91//87 83//89 125//86 
f 77//85 91//87 135//84 
f 76//83 77//85 138//82 
f 75//81 76//83 126//80 
f 73//79 75//81 127//78 
f 74//77 73//79 128//76 
f 90//75 74//77 129//74 
f 99//73 90//75 139//72 
o mesh9
f 99//108 140//108 108//108 
f 108//108 100//108 99//108 
